<?xml version="1.0" encoding="UTF-8"?><svg id="Layer_2" xmlns="http://www.w3.org/2000/svg" viewBox="0 0 387.22 185.45"><g id="Layer_1-2"><path d="M191.15,96.86c-1.99-2.59-3.9-5.12-6.34-7.2-10.78-9.18-26.83-9.4-37.81-.48-7.38,5.99-10.99,13.91-11.06,23.26-.16,22.38-.05,44.76-.05,67.14,0,3.61-1.48,5.1-5.06,5.1h-6.89c-3.16,0-4.78-1.63-4.78-4.81,0-22.38-.03-44.76.02-67.14.01-4.96-.98-9.66-3.22-14.01-5.63-10.9-14.8-16.21-26.98-16.01-14.5.23-26.85,12.07-28.02,26.55-.1,1.19-.15,2.39-.15,3.59v66.09c0,.65,0,1.3-.06,1.95-.21,2.22-1.81,3.75-4.06,3.78-2.8.04-5.6.04-8.39,0-2.46-.03-4.12-1.72-4.12-4.18v-105.06c0-2.41,1.56-4.11,3.95-4.2,2.49-.09,5-.08,7.49,0,2.08.07,3.52,1.42,3.92,3.46.64,3.29,2.13,3.99,4.87,1.99,4.08-2.96,8.42-5.34,13.23-6.85,9.79-3.08,19.47-2.18,29.17.62,7.65,2.21,13.62,6.72,18.58,12.75,2.52,3.06,4.77,3.18,7.08-.11,5.77-8.22,13.89-12.55,23.48-14.37,7.61-1.45,15.19-.69,22.73.93,4.14.89,8.03,2.35,11.63,4.57.48.3.89.5.89,1.21-.03,7.14-.02,14.28-.02,21.43h-.03Z" style="fill:#c8da2c; stroke-width:0px;"/><path d="M306.02,66.15c-3.04-3.51-6.44-6.68-9.61-10.08-.66-.7-.91-.33-1.29.24-2.72,4.06-5.47,8.12-8.21,12.17-1.53,2.27-3.06,4.54-4.62,6.86,0-3.47-.03-6.82,0-10.17.04-4.09.08-8.19.23-12.28.05-1.35-.37-1.57-1.6-1.32-6.84,1.39-13.69,2.72-20.54,4.07-.43.09-.88.13-1.78.26,5.95-5.76,11.61-11.25,17.18-16.64-3.11-3.47-7.29-4.13-11.5-4.81-13.94-2.28-27.95-3.92-42.05-4.88-14.62-.99-29.25-1.16-43.87-.68-27.85.92-55.37,4.39-82.43,11.22-19.26,4.86-37.95,11.29-55.6,20.51-12.1,6.32-23.38,13.81-33.03,23.57C4.71,86.81,2.34,89.64,0,92.51c.11-.91.62-1.63,1.06-2.38,5.76-9.85,13.59-17.84,22.51-24.8,13.9-10.85,29.46-18.69,45.83-25.01,19.24-7.43,39.13-12.43,59.45-15.81,13.84-2.3,27.78-3.77,41.79-4.57,12.38-.71,24.76-.82,37.14-.4,18.57.63,37.03,2.48,55.32,5.84,3.3.61,6.68.26,10.02.36,1.9.06,3.8,0,5.69.07.97.04,1.21-.27,1.02-1.21-1.44-7.19-2.85-14.38-4.27-21.57-.02-.08.01-.17.03-.28.77-.25,1.05.43,1.42.82,4.77,4.9,9.55,9.8,14.26,14.76.83.88,1.15.83,1.8-.16,3.72-5.62,7.51-11.19,11.28-16.78.22-.33.45-.66.68-.99.18-.26.38-.51.72-.33.26.13.19.43.18.67-.3,4.74-.16,9.48-.26,14.23-.05,2.39-.08,4.79-.18,7.18-.05,1.05.25,1.22,1.29,1.01,7.18-1.46,14.38-2.84,21.58-4.24.19-.04.39-.02.52-.03-2,2.09-3.98,4.24-6.05,6.29-3.27,3.23-6.58,6.42-9.92,9.57-.82.78-.53,1.05.21,1.63,5.86,4.66,12.81,7.24,19.49,10.36,12.4,5.79,24.1,12.73,34.56,21.61,7.79,6.61,14.58,14.07,19.53,23.09.19.35.35.71.51,1.07.03.07-.06.18-.1.29-9.46-12.59-21.8-21.7-35.31-29.4-9.69-5.52-19.87-9.99-30.28-13.94-1.61-.61-3.26-.34-4.89-.47-2.48-.2-4.99-.07-7.49-.13-.83-.02-1.2.16-1,1.1,1.01,4.93,1.98,9.87,2.97,14.81.94,1.26.81,2.83,1.19,4.25.24.91.46,1.84.5,2.78.03.66-.37,1.06-.9.55-2.07-1.97-4.39-3.69-5.89-6.2h.01Z" style="fill:#c8da2c; stroke-width:0px;"/><path d="M306.02,66.15c2.05,2.15,4.11,4.29,6.16,6.44l.36-.28c-.47-2.51-.95-5.03-1.42-7.54,7.14-1.17,14.12-.66,20.91,1.91,8.92,3.37,15.89,9.26,21.53,16.82,3.33,4.46,5.95,9.33,7.95,14.53.23.6.45,1.22.58,1.85.55,2.76-.53,4.06-3.36,4.07-2.4,0-4.8-.11-7.19.03-2.62.15-4.2-1.01-5.29-3.29-2.26-4.74-5.38-8.86-9.29-12.38-11.02-9.92-26.18-9.97-37.25-.12-7.32,6.52-11.54,14.82-13.6,24.25-2.89,13.25-1.44,26,4.96,38.04,2.92,5.51,6.91,10.15,12.14,13.62,11.1,7.37,24.88,5.92,34.57-3.56,3.06-2.99,5.7-6.3,7.67-10.09,1.27-2.43,3.11-3.47,5.8-3.36,2.49.09,5-.02,7.49.03,2.66.06,3.84,1.63,2.89,4.06-4.78,12.19-12.12,22.36-23.69,28.96-14.67,8.38-32.26,6.72-45.6-4.22-10.51-8.62-16.84-19.87-20.02-32.92-4.25-17.49-2.76-34.49,5.26-50.71,4.91-9.94,11.98-17.99,21.85-23.35,2.11-1.14,4.29-2.11,6.59-2.81v.02Z" style="fill:#4cb548; stroke-width:0px;"/><path d="M268.07,105.73c-.74-2.94-1.74-5.77-3.29-8.39-6.39-10.83-18.51-16.49-30.57-14.27-12.29,2.26-21.84,12.14-23.76,24.66-.23,1.52-.32,3.08-.32,4.63-.02,22.43,0,44.87,0,67.3,0,3.56-1.43,5.01-4.95,5.01-2.45,0-4.9.02-7.34,0-2.64-.03-4.28-1.67-4.28-4.33v-104.77c0-2.65,1.61-4.3,4.27-4.36,2.25-.05,4.5-.04,6.74,0,2.53.05,3.96,1.32,4.36,3.82.43,2.7,2.02,3.47,4.37,1.96,2.73-1.76,5.36-3.64,8.32-5.03,10.23-4.8,20.74-4.93,31.58-2.36,8.94,2.12,16.1,6.76,21.81,13.84.06.08.13.15.18.24.43.75,1.81.84,1.67,1.82-.12.82-.85,1.55-1.29,2.33-3.08,5.41-5.33,11.15-6.96,17.15-.07.26.03.63-.5.76h-.03Z" style="fill:#8ac340; stroke-width:0px;"/></g></svg>